<svg xmlns="http://www.w3.org/2000/svg" width="38.528" height="38.527" viewBox="0 0 38.528 38.527">
  <path id="airplane_flight_plane" data-name="airplane, flight, plane" d="M43.264,9.736A5,5,0,0,0,34.728,6.2l-6.66,6.661-15-4.091a1,1,0,0,0-.97.258L7.858,13.272a1,1,0,0,0,.222,1.581L19.649,21.28l-7.255,7.255H9.979a1,1,0,0,0-.707.293L5.029,33.071a1,1,0,0,0,.26,1.6l5.359,2.679,2.679,5.359a1,1,0,0,0,1.6.26l4.243-4.243a1,1,0,0,0,.293-.707V35.606l7.255-7.255,6.427,11.568a1,1,0,0,0,.735.5.979.979,0,0,0,.846-.283L38.971,35.9a1,1,0,0,0,.258-.97l-4.091-15,6.661-6.66a4.968,4.968,0,0,0,1.465-3.536Zm-2.879,2.122-7.071,7.07a1,1,0,0,0-.258.97l4.091,15-2.9,2.895L27.824,26.221A1,1,0,0,0,26.243,26l-8.486,8.485a1,1,0,0,0-.293.707v2.414L14.5,40.575l-2.208-4.416a1,1,0,0,0-.447-.447L7.425,33.5l2.969-2.969h2.414a1,1,0,0,0,.707-.293L22,21.756a1,1,0,0,0-.222-1.581L10.21,13.748l2.895-2.9,15,4.091a1,1,0,0,0,.97-.258l7.07-7.071a3,3,0,0,1,4.243,4.243Z" transform="translate(-4.736 -4.735)" fill="#646464"/>
</svg>
