<svg xmlns="http://www.w3.org/2000/svg" width="43.999" height="32.004" viewBox="0 0 43.999 32.004">
  <path id="boat_ship_sailboat" data-name="boat, ship, sailboat" d="M45.828,28.44A1,1,0,0,0,45,28H36.5a14.725,14.725,0,0,0-1.609-12.461A15.923,15.923,0,0,0,21,8a.921.921,0,0,0-1,1V28H3a1,1,0,0,0-.928,1.371l4,10A1,1,0,0,0,7,40H41a1,1,0,0,0,.928-.629l4-10a1,1,0,0,0-.1-.931ZM33.19,16.59A12.535,12.535,0,0,1,34.333,28H28.41c-.516-5.039-2.078-13.116-5.211-17.85a13.753,13.753,0,0,1,9.991,6.44ZM22,12.024C24.307,16.018,25.83,22.512,26.4,28H22ZM40.322,38H7.678l-3.2-8H43.523Z" transform="translate(-2 -7.996)" fill="#646464"/>
</svg>
