<svg xmlns="http://www.w3.org/2000/svg" width="23.735" height="23.739" viewBox="0 0 23.735 23.739">
  <g id="instagram" transform="translate(-0.449)">
    <path id="Path_7" data-name="Path 7" d="M24.124,6.979a8.674,8.674,0,0,0-.552-2.88A6.081,6.081,0,0,0,20.1.626a8.7,8.7,0,0,0-2.88-.552C15.948.014,15.544,0,12.321,0S8.695.014,7.429.07a8.677,8.677,0,0,0-2.88.552A5.792,5.792,0,0,0,2.443,1.994a5.845,5.845,0,0,0-1.368,2.1,8.7,8.7,0,0,0-.552,2.88c-.06,1.271-.074,1.674-.074,4.9s.014,3.626.07,4.893a8.674,8.674,0,0,0,.552,2.88,6.08,6.08,0,0,0,3.473,3.473,8.7,8.7,0,0,0,2.88.552c1.266.056,1.669.07,4.893.07s3.626-.014,4.893-.07a8.672,8.672,0,0,0,2.88-.552,6.072,6.072,0,0,0,3.474-3.473,8.7,8.7,0,0,0,.552-2.88c.056-1.266.07-1.669.07-4.893S24.179,8.246,24.124,6.979Zm-2.138,9.692a6.507,6.507,0,0,1-.408,2.2,3.938,3.938,0,0,1-2.254,2.254,6.53,6.53,0,0,1-2.2.408c-1.252.056-1.628.07-4.8.07s-3.548-.014-4.8-.07a6.5,6.5,0,0,1-2.2-.408,3.653,3.653,0,0,1-1.363-.886,3.691,3.691,0,0,1-.886-1.363,6.531,6.531,0,0,1-.408-2.2c-.056-1.252-.07-1.628-.07-4.8s.014-3.548.07-4.8a6.5,6.5,0,0,1,.408-2.2A3.608,3.608,0,0,1,3.969,3.52a3.685,3.685,0,0,1,1.363-.886,6.534,6.534,0,0,1,2.2-.408c1.252-.056,1.628-.07,4.8-.07s3.548.014,4.8.07a6.507,6.507,0,0,1,2.2.408,3.65,3.65,0,0,1,1.363.886,3.69,3.69,0,0,1,.886,1.364,6.533,6.533,0,0,1,.408,2.2c.056,1.252.07,1.628.07,4.8S22.041,15.42,21.986,16.672Zm0,0" fill="#fff"/>
    <path id="Path_8" data-name="Path 8" d="M131.048,124.5a6.1,6.1,0,1,0,6.1,6.1A6.1,6.1,0,0,0,131.048,124.5Zm0,10.054A3.956,3.956,0,1,1,135,130.6,3.956,3.956,0,0,1,131.048,134.554Zm0,0" transform="translate(-118.726 -118.726)" fill="#fff"/>
    <path id="Path_9" data-name="Path 9" d="M365.3,90.025a1.424,1.424,0,1,1-1.424-1.424A1.424,1.424,0,0,1,365.3,90.025Zm0,0" transform="translate(-345.212 -84.493)" fill="#fff"/>
  </g>
</svg>
