<svg xmlns="http://www.w3.org/2000/svg" width="24" height="44" viewBox="0 0 24 44">
  <g id="suitcase_travel_luggage" data-name="suitcase, travel, luggage" transform="translate(-12 -2)">
    <path id="Path_15" data-name="Path 15" d="M33,16H30V5a3,3,0,0,0-3-3H21a3,3,0,0,0-3,3V16H15a3,3,0,0,0-3,3V41a3,3,0,0,0,3,3h3v1a1,1,0,0,0,2,0V44h8v1a1,1,0,0,0,2,0V44h3a3,3,0,0,0,3-3V19A3,3,0,0,0,33,16ZM20,5a1,1,0,0,1,1-1h6a1,1,0,0,1,1,1V16H20ZM34,41a1,1,0,0,1-1,1H15a1,1,0,0,1-1-1V19a1,1,0,0,1,1-1H33a1,1,0,0,1,1,1Z" fill="#646464"/>
    <path id="Path_16" data-name="Path 16" d="M29,22H19a1,1,0,0,0-1,1V37a1,1,0,0,0,1,1H29a1,1,0,0,0,1-1V23A1,1,0,0,0,29,22ZM28,36H20V24h8Z" fill="#646464"/>
  </g>
</svg>
