<svg xmlns="http://www.w3.org/2000/svg" width="41.8" height="44" viewBox="0 0 41.8 44">
  <path id="signpost_direction_sign_board" data-name="signpost, direction, sign board" d="M40.2,21.6a1.1,1.1,0,0,0,.778-.322l5.5-5.5a1.1,1.1,0,0,0,0-1.556l-5.5-5.5A1.1,1.1,0,0,0,40.2,8.4H30.3V5.1A1.1,1.1,0,0,0,29.2,4H22.6a1.1,1.1,0,0,0-1.1,1.1V8.4H11.6a1.1,1.1,0,0,0-1.1,1.1v11a1.1,1.1,0,0,0,1.1,1.1h9.9V26H11.6a1.1,1.1,0,0,0-.778.322l-5.5,5.5a1.1,1.1,0,0,0,0,1.556l5.5,5.5a1.1,1.1,0,0,0,.778.322h9.9v7.7A1.1,1.1,0,0,0,22.6,48h6.6a1.1,1.1,0,0,0,1.1-1.1V39.2h9.9a1.1,1.1,0,0,0,1.1-1.1v-11A1.1,1.1,0,0,0,40.2,26H30.3V21.6ZM23.7,6.2h4.4V8.4H23.7Zm-11,4.4H39.744l4.4,4.4-4.4,4.4H12.7ZM28.1,45.8H23.7V39.2h4.4Zm11-8.8H12.055l-4.4-4.4,4.4-4.4H39.1Zm-11-11H23.7V21.6h4.4Z" transform="translate(-5 -4)" fill="#646464"/>
</svg>
