<svg xmlns="http://www.w3.org/2000/svg" width="44" height="28" viewBox="0 0 44 28">
  <path id="van_travel_minivan" data-name="van, travel, minivan" d="M37,11H7a5.005,5.005,0,0,0-5,5V30a5.005,5.005,0,0,0,5,5H8a4,4,0,0,0,8,0H32a4,4,0,0,0,8,0h1a5.005,5.005,0,0,0,5-5V28C46,22.072,43.359,11,37,11ZM7,13H37c2.41,0,4.211,2.691,5.385,6H4V16a3,3,0,0,1,3-3Zm5,24a2,2,0,1,1,2-2A2,2,0,0,1,12,37Zm24,0a2,2,0,1,1,2-2,2,2,0,0,1-2,2Zm8-7a3,3,0,0,1-3,3H39.444a3.965,3.965,0,0,0-6.887,0H15.444a3.965,3.965,0,0,0-6.887,0H7a3,3,0,0,1-3-3V21H43.008A28.833,28.833,0,0,1,44,28Z" transform="translate(-2 -11)" fill="#646464"/>
</svg>
