<svg xmlns="http://www.w3.org/2000/svg" width="37.348" height="37.348" viewBox="0 0 37.348 37.348">
  <g id="watch" transform="translate(-0.002)">
    <path id="Path_17" data-name="Path 17" d="M18.676,0A18.674,18.674,0,1,0,37.35,18.674,18.695,18.695,0,0,0,18.676,0Zm0,34.671a16,16,0,1,1,16-16A16.016,16.016,0,0,1,18.676,34.671Z" fill="#646464"/>
    <path id="Path_18" data-name="Path 18" d="M105.724,52.565H96.948V42.972a1.338,1.338,0,1,0-2.677,0V53.9a1.338,1.338,0,0,0,1.338,1.338h10.114a1.338,1.338,0,1,0,0-2.677Z" transform="translate(-77.446 -34.204)" fill="#646464"/>
  </g>
</svg>
