<svg xmlns="http://www.w3.org/2000/svg" width="74.455" height="28.724" viewBox="0 0 74.455 28.724">
  <g id="Group_2" data-name="Group 2" transform="translate(-438.162 -138.016)">
    <path id="Path_4" data-name="Path 4" d="M5.257,14.58,16.077-7.738,26.169,14.58h2.28L15.4-14.135H14.16L.162,14.58Z" transform="translate(438 152.15)" fill="#fff"/>
    <path id="Path_1" data-name="Path 1" d="M5.257-47.984l10.82,22.325L26.169-47.984h2.28L15.4-19.26H14.16l-14-28.724Z" transform="translate(484.168 186)" fill="#fff"/>
    <path id="Path_2" data-name="Path 2" d="M6.039-47.984h9.922a16.629,16.629,0,0,1,4.549.558,9.792,9.792,0,0,1,3.263,1.553A6.416,6.416,0,0,1,25.738-43.5a6.937,6.937,0,0,1,.655,3.008,6.165,6.165,0,0,1-.509,2.5,6.811,6.811,0,0,1-1.443,2.1,9.334,9.334,0,0,1-2.232,1.625,11.723,11.723,0,0,1-2.851,1.055L29.813-19.26h-5.6L14.238-32.773H10.866V-19.26H6.039ZM10.866-34.2h2.766a10.206,10.206,0,0,0,3.008-.425,7.18,7.18,0,0,0,2.39-1.225A5.722,5.722,0,0,0,20.607-37.8a5.616,5.616,0,0,0,.57-2.547,6.012,6.012,0,0,0-.449-2.353,5.513,5.513,0,0,0-1.249-1.844,5.7,5.7,0,0,0-1.917-1.213,6.668,6.668,0,0,0-2.45-.437H10.866Z" transform="translate(458.987 186)" fill="#fff"/>
    <path id="Path_3" data-name="Path 3" d="M25.74,0H0" transform="translate(447.942 152.672)" fill="#fff" stroke="#fff" stroke-width="2"/>
  </g>
</svg>
